# xmcd
#
# Track frame offsets: 
#        150
#        13857
#        30384
#        47298
#        65017
#
# Disc length: 1116 seconds
#
# Revision: 0
# Processed by: cddbd v1.5.2PL0 Copyright (c) Steve Scherf et al.
# Submitted via: ExactAudioCopyFreeDBPlugin 1.0
#
DISCID=35045a05
DTITLE=Justin Moore - Point at You and Four Moore Hits EP
DYEAR=2013
DGENRE=Country
TTITLE0=Point at You
TTITLE1=Small Town USA
TTITLE2=If Heaven Wasn't So Far Away
TTITLE3=Til My Last Day
TTITLE4=Ain't Livin' Long Like This
EXTD=
EXTT0=
EXTT1=
EXTT2=
EXTT3=
EXTT4=
PLAYORDER=
